<svg version="1.1" preserveAspectRatio="none" xmlns="http://www.w3.org/2000/svg" width="500" height="500" viewBox="0 0 500 500"><rect width="100%" height="100%" fill="#000000" fill-opacity="1"/><svg viewBox="52.1868 198.4501 493.4494 301.6402" width="333" height="203.5592435617512" x="83.5px" y="148.2204px" xmlns="http://www.w3.org/2000/svg" xmlns:xlink="http://www.w3.org/1999/xlink" preserveAspectRatio="none"><defs></defs><style>.aa2O-D20rgJ0filter-floo {flood-color:#F539BD;flood-opacity:1;}.aHsFB6mEE6colors-1 {fill:#F539B3;fill-opacity:1;}.aHsFB6mEE6colors-2 {fill:#F539BD;fill-opacity:1;}.ai0NrGVRvc0filter-floo {flood-color:#F3F3F3;flood-opacity:0.91;}.aRWrrEA-PR0filter-floo {flood-color:#E9B0D6;flood-opacity:0.5;}.atUk6sjh6M0filter-floo {flood-color:#FFC7C7;flood-opacity:0.89;}.companyName {fill:#FBE1EF;fill-opacity:1;}.icon2 {fill:#F539B3;fill-opacity:1;}.icon3 {fill:#F539BD;fill-opacity:1;}.icon3-str {stroke:#F539BD;stroke-opacity:1;}.shape-floo {flood-color:#2525CE;flood-opacity:1;}</style><defs>
      <filter
        x="52.1868"
        y="308.0903"
        width="493.4494"
        height="192"
        id="ikYEXSHZT"
        filterUnits="userSpaceOnUse"
        primitiveUnits="userSpaceOnUse"
        color-interpolation-filters="sRGB">
        
    <feGaussianBlur in="SourceGraphic" stdDeviation="7"/>
    <feOffset dx="2.4630255792620215" dy="2.4630255792620215" result="nxxyjX-TeI"/>
    <feFlood flood-color="#2525CE" flood-opacity="1" in="nxxyjX-TeI" />
    <feComposite  in2="nxxyjX-TeI" operator="in" result="-GtOVdDxH"/><feMerge result="ADr0T--HVk"><feMergeNode in="-GtOVdDxH" /><feMergeNode in="SourceGraphic" /></feMerge><feGaussianBlur  result="IwNi9be-Ta" stdDeviation="10" />
      </filter>
      <filter
        x="88.7134"
        y="344.6273"
        width="415.4702"
        height="114"
        id="tUk6sjh6M"
        filterUnits="userSpaceOnUse"
        primitiveUnits="userSpaceOnUse"
        color-interpolation-filters="sRGB">
        
    <feGaussianBlur in="SourceGraphic" stdDeviation="4"/>
    <feOffset dx="0" dy="0" result="h5ll0kLljl"/>
    <feFlood flood-color="#FFC7C7" flood-opacity="0.89" in="h5ll0kLljl" />
    <feComposite  in2="h5ll0kLljl" operator="in" result="oP777GSAX-"/><feMerge result="a9VoXr9Iw9"><feMergeNode in="oP777GSAX-" /><feMergeNode in="SourceGraphic" /></feMerge>
      </filter>
      <filter
        x="199.057"
        y="198.4501"
        width="200.4286"
        height="192"
        id="a2O-D20rgJ"
        filterUnits="userSpaceOnUse"
        primitiveUnits="userSpaceOnUse"
        color-interpolation-filters="sRGB">
        
    <feGaussianBlur in="SourceGraphic" stdDeviation="7"/>
    <feOffset dx="2.8228399746132595" dy="2.8228399746132595" result="xlVLLvqeld"/>
    <feFlood flood-color="#F539BD" flood-opacity="1" in="xlVLLvqeld" />
    <feComposite  in2="xlVLLvqeld" operator="in" result="tuJYC3-02G"/><feMerge result="Ozm95gQDHf"><feMergeNode in="tuJYC3-02G" /><feMergeNode in="SourceGraphic" /></feMerge><feGaussianBlur  result="La-E2uaQ-m" stdDeviation="10" />
      </filter>
      <filter
        x="235.2342"
        y="234.6273"
        width="122.4286"
        height="114"
        id="i0NrGVRvc"
        filterUnits="userSpaceOnUse"
        primitiveUnits="userSpaceOnUse"
        color-interpolation-filters="sRGB">
        
    <feGaussianBlur in="SourceGraphic" stdDeviation="4"/>
    <feOffset dx="0" dy="0" result="qRMU7RutOy"/>
    <feFlood flood-color="#F3F3F3" flood-opacity="0.91" in="qRMU7RutOy" />
    <feComposite  in2="qRMU7RutOy" operator="in" result="wL9Grcf1Yi"/><feMerge result="mkge8IVoe-"><feMergeNode in="wL9Grcf1Yi" /><feMergeNode in="SourceGraphic" /></feMerge>
      </filter></defs><g filter="url(#ikYEXSHZT)"><g opacity="1" transform="rotate(0 100.7238 356.6273)">
<svg width="391.4494" height="90" x="100.7238" y="356.6273" version="1.1" preserveAspectRatio="none" viewBox="0.5859 -30.2344 135.4102 31.132800000000003">
  <g transform="matrix(1 0 0 1 0 0)" class="icon3"><path id="id-BEGfasMba7" d="M51.95-29.38L51.95-29.38Q51.91-29.08 51.70-28.91Q51.48-28.73 51.21-28.73L51.21-28.73Q51.17-28.73 51.07-28.74Q50.98-28.75 50.63-28.75L50.63-28.75Q50.25-28.75 49.68-28.67Q49.10-28.59 48.41-28.35Q47.71-28.11 46.96-27.64Q46.21-27.17 45.49-26.38Q44.77-25.59 44.12-24.42Q43.48-23.26 43.03-21.62L43.03-21.62Q42.79-20.80 42.49-19.27Q42.19-17.73 41.85-15.82Q41.50-13.91 41.16-11.74Q40.82-9.57 40.52-7.48Q40.21-5.39 39.96-3.51Q39.71-1.62 39.57-0.27L39.57-0.27Q39.53-0.02 39.35 0.19Q39.16 0.39 38.89 0.39L38.89 0.39Q38.61 0.39 38.41 0.25Q38.20 0.12 38.13-0.16L38.13-0.16Q37.87-1.09 37.32-2.75Q36.78-4.41 36.06-6.49Q35.35-8.57 34.51-10.92Q33.67-13.26 32.84-15.56Q32.01-17.85 31.24-19.95Q30.47-22.05 29.88-23.65L29.88-23.65Q29.79-22.56 29.58-21.22Q29.38-19.88 29.03-18.35Q28.69-16.82 28.18-15.11Q27.68-13.40 26.97-11.56L26.97-11.56Q25.88-8.75 24.40-6.76Q22.93-4.77 21.31-3.44Q19.69-2.11 18.02-1.34Q16.35-0.57 14.88-0.18Q13.42 0.21 12.25 0.32Q11.07 0.43 10.45 0.43L10.45 0.43Q8.30 0.43 6.49-0.14Q4.69-0.70 3.37-1.75Q2.05-2.79 1.32-4.25Q0.59-5.70 0.59-7.46L0.59-7.46Q0.59-9.04 1.30-10.42Q2.01-11.80 3.21-12.81Q4.41-13.83 5.97-14.41Q7.52-15 9.20-15L9.20-15Q10.59-15 11.69-14.73Q12.79-14.45 13.64-14.03Q14.49-13.61 15.11-13.13Q15.72-12.64 16.12-12.20Q16.52-11.76 16.73-11.45Q16.93-11.13 16.97-11.07L16.97-11.07Q17.05-10.92 17.05-10.72L17.05-10.72Q17.05-10.45 16.85-10.21Q16.64-9.98 16.31-9.98L16.31-9.98Q15.88-9.98 15.66-10.37L15.66-10.37Q15.64-10.43 15.28-10.93Q14.92-11.43 14.17-12.01Q13.42-12.60 12.23-13.08Q11.04-13.55 9.34-13.55L9.34-13.55Q7.95-13.55 6.63-13.09Q5.31-12.62 4.30-11.80Q3.28-10.98 2.67-9.85Q2.05-8.73 2.05-7.42L2.05-7.42Q2.05-6.00 2.71-4.81Q3.38-3.63 4.52-2.79Q5.66-1.95 7.18-1.49Q8.69-1.04 10.41-1.04L10.41-1.04Q11.07-1.04 12.17-1.13Q13.26-1.23 14.62-1.58Q15.98-1.93 17.48-2.65Q18.98-3.36 20.45-4.59Q21.91-5.82 23.25-7.66Q24.59-9.49 25.61-12.11L25.61-12.11Q26.66-14.80 27.26-17.24Q27.85-19.67 28.14-21.62Q28.44-23.57 28.51-24.95Q28.57-26.33 28.57-26.91L28.57-26.91L28.57-27.30Q28.57-27.62 28.78-27.84Q28.98-28.07 29.32-28.07L29.32-28.07Q29.80-28.07 30-27.58L30-27.58Q30.06-27.44 30.34-26.66Q30.63-25.88 31.08-24.64Q31.54-23.40 32.14-21.78Q32.73-20.16 33.40-18.33Q34.06-16.50 34.77-14.55Q35.47-12.60 36.14-10.70Q36.82-8.81 37.42-7.05Q38.03-5.29 38.52-3.85L38.52-3.85Q38.73-5.41 38.98-7.16Q39.24-8.91 39.52-10.69Q39.80-12.48 40.09-14.20Q40.37-15.92 40.65-17.42Q40.94-18.93 41.17-20.12Q41.41-21.31 41.60-22.03L41.60-22.03Q42.03-23.75 42.83-25.24Q43.63-26.74 44.78-27.85Q45.92-28.96 47.39-29.60Q48.87-30.23 50.66-30.23L50.66-30.23Q51.35-30.23 51.65-30.08Q51.95-29.92 51.95-29.47L51.95-29.47L51.95-29.38Z M60.96-5.45L60.96-5.45Q60.88-5.29 60.63-4.79Q60.39-4.30 60.01-3.65Q59.63-3.01 59.12-2.30Q58.61-1.60 57.99-1.02Q57.36-0.43 56.64-0.05Q55.92 0.33 55.12 0.33L55.12 0.33Q53.98 0.33 53.21-0.39Q52.44-1.11 52.09-2.21L52.09-2.21Q51.43-1.09 50.51-0.44Q49.59 0.21 48.67 0.21L48.67 0.21Q47.95 0.21 47.36-0.05Q46.78-0.31 46.37-0.79Q45.96-1.27 45.73-1.91Q45.51-2.56 45.51-3.32L45.51-3.32Q45.51-4.84 46.03-6.01Q46.54-7.17 47.34-7.95Q48.14-8.73 49.11-9.12Q50.08-9.51 50.98-9.51L50.98-9.51Q51.58-9.51 52.09-9.35Q52.60-9.18 52.96-8.98Q53.32-8.79 53.52-8.62Q53.71-8.46 53.73-8.44L53.73-8.44Q53.95-8.18 53.95-7.91L53.95-7.91Q53.95-7.62 53.73-7.39Q53.52-7.17 53.22-7.17L53.22-7.17Q52.91-7.17 52.70-7.38L52.70-7.38Q52.66-7.42 52.52-7.53Q52.38-7.64 52.15-7.75Q51.91-7.87 51.59-7.96Q51.27-8.05 50.86-8.05L50.86-8.05Q50.25-8.05 49.57-7.77Q48.89-7.50 48.32-6.92Q47.75-6.35 47.37-5.48Q46.99-4.61 46.99-3.42L46.99-3.42Q46.99-3.05 47.07-2.67Q47.15-2.29 47.34-1.97Q47.54-1.66 47.87-1.46Q48.20-1.27 48.69-1.27L48.69-1.27Q49.04-1.27 49.50-1.50Q49.96-1.74 50.38-2.23Q50.80-2.71 51.14-3.46Q51.48-4.20 51.62-5.21L51.62-5.21Q51.66-5.49 51.88-5.67Q52.09-5.86 52.38-5.86L52.38-5.86Q52.66-5.86 52.86-5.64Q53.07-5.43 53.09-5.16L53.09-5.16Q53.11-4.79 53.16-4.11Q53.22-3.44 53.43-2.77Q53.63-2.11 54.04-1.62Q54.45-1.13 55.18-1.13L55.18-1.13Q55.64-1.13 56.10-1.39Q56.56-1.64 57.00-2.06Q57.44-2.48 57.84-3.02Q58.24-3.55 58.57-4.10Q58.91-4.65 59.16-5.16Q59.41-5.66 59.59-6.04L59.59-6.04Q59.69-6.25 59.87-6.37Q60.06-6.48 60.27-6.48L60.27-6.48Q60.61-6.48 60.81-6.24Q61.02-6.00 61.02-5.72L61.02-5.72Q61.02-5.59 60.96-5.45Z M64.12-1.74L64.12-1.74Q64.41-2.32 64.87-3.19Q65.33-4.06 65.83-4.94Q66.33-5.82 66.81-6.60Q67.29-7.38 67.62-7.79L67.62-7.79Q68.18-8.48 68.79-8.77Q69.39-9.06 69.90-9.06L69.90-9.06Q70.41-9.06 70.77-8.85Q71.13-8.63 71.37-8.27Q71.60-7.91 71.72-7.43Q71.84-6.95 71.84-6.41L71.84-6.41Q71.84-6.09 71.81-5.59Q71.78-5.08 71.75-4.49Q71.72-3.91 71.69-3.28Q71.66-2.66 71.64-2.11L71.64-2.11Q71.93-2.70 72.30-3.41Q72.68-4.12 73.06-4.82Q73.44-5.53 73.79-6.14Q74.14-6.76 74.43-7.15L74.43-7.15Q75.27-8.30 76.01-8.69Q76.74-9.08 77.30-9.08L77.30-9.08Q77.97-9.08 78.40-8.84Q78.83-8.59 79.07-8.21Q79.32-7.83 79.41-7.36Q79.51-6.89 79.51-6.46L79.51-6.46Q79.51-5.80 79.41-5.08Q79.32-4.36 79.32-3.36L79.32-3.36Q79.32-2.95 79.36-2.54Q79.39-2.13 79.52-1.82Q79.65-1.50 79.92-1.31Q80.20-1.11 80.66-1.11L80.66-1.11Q81.17-1.11 81.66-1.38Q82.15-1.64 82.60-2.07Q83.05-2.50 83.45-3.05Q83.85-3.59 84.18-4.14Q84.51-4.69 84.77-5.19Q85.02-5.68 85.18-6.04L85.18-6.04Q85.27-6.25 85.45-6.37Q85.63-6.48 85.84-6.48L85.84-6.48Q86.17-6.48 86.38-6.24Q86.58-6.00 86.58-5.72L86.58-5.72Q86.58-5.59 86.52-5.45L86.52-5.45Q86.45-5.29 86.21-4.79Q85.98-4.30 85.59-3.66Q85.20-3.03 84.68-2.32Q84.16-1.62 83.54-1.03Q82.91-0.43 82.19-0.05Q81.46 0.33 80.66 0.33L80.66 0.33Q79.80 0.33 79.27 0.03Q78.73-0.27 78.41-0.78Q78.09-1.29 77.97-1.95Q77.85-2.62 77.85-3.34L77.85-3.34Q77.85-4.30 77.95-5.11Q78.05-5.92 78.05-6.37L78.05-6.37Q78.05-6.86 77.96-7.11Q77.87-7.36 77.74-7.47Q77.62-7.58 77.50-7.59Q77.38-7.60 77.32-7.60L77.32-7.60Q76.86-7.60 76.34-7.08Q75.82-6.56 75.27-5.70Q74.73-4.84 74.15-3.75Q73.57-2.66 72.99-1.52L72.99-1.52Q72.66-0.90 72.43-0.49Q72.21-0.08 72.00 0.16Q71.80 0.39 71.60 0.49Q71.41 0.59 71.17 0.59L71.17 0.59Q70.66 0.59 70.40 0.23Q70.14-0.12 70.14-0.68L70.14-0.68Q70.14-0.98 70.16-1.46Q70.18-1.95 70.20-2.54Q70.21-3.13 70.25-3.75Q70.29-4.38 70.31-4.95Q70.33-5.53 70.35-5.98Q70.37-6.43 70.37-6.66L70.37-6.66Q70.37-7.17 70.20-7.39Q70.02-7.62 69.79-7.62L69.79-7.62Q69.57-7.62 69.31-7.46Q69.04-7.30 68.69-6.86L68.69-6.86Q68.42-6.50 68.00-5.83Q67.58-5.16 67.11-4.34Q66.64-3.52 66.18-2.66Q65.72-1.80 65.39-1.11L65.39-1.11Q64.98-0.29 64.57 0.01Q64.16 0.31 63.77 0.31L63.77 0.31Q63.20 0.31 62.93-0.03Q62.66-0.37 62.66-0.94L62.66-0.94Q62.66-1.00 62.69-1.64Q62.71-2.29 62.75-3.21Q62.79-4.14 62.84-5.20Q62.89-6.25 62.93-7.17L62.93-7.17Q62.95-7.66 62.89-8.07Q62.83-8.48 62.73-8.55L62.73-8.55Q62.58-8.52 62.12-7.83Q61.66-7.15 60.96-5.45L60.96-5.45Q60.86-5.23 60.66-5.12Q60.47-5 60.25-5L60.25-5Q59.92-5 59.73-5.22Q59.53-5.45 59.53-5.74L59.53-5.74Q59.53-5.88 59.59-6.04L59.59-6.04Q60.47-8.13 61.27-9.11Q62.07-10.10 62.83-10.10L62.83-10.10Q63.28-10.10 63.58-9.89Q63.89-9.69 64.06-9.37Q64.24-9.04 64.32-8.63Q64.39-8.22 64.39-7.83L64.39-7.83Q64.39-6.09 64.31-4.65Q64.22-3.20 64.12-1.74Z M101.64-5.41L101.64-5.41Q101.58-5.29 101.39-4.93Q101.19-4.57 100.88-4.09Q100.57-3.61 100.14-3.08Q99.71-2.54 99.20-2.09Q98.69-1.64 98.11-1.35Q97.52-1.05 96.89-1.05L96.89-1.05Q95.88-1.05 95.18-1.42Q94.47-1.78 94.02-2.23L94.02-2.23Q93.71-1.54 93.26-0.98Q92.81-0.41 92.27 0.01Q91.72 0.43 91.10 0.66Q90.49 0.90 89.84 0.90L89.84 0.90Q88.65 0.90 87.81 0.20Q86.97-0.51 86.42-1.69Q85.86-2.87 85.55-4.43Q85.23-6.00 85.07-7.71Q84.90-9.43 84.86-11.19Q84.82-12.95 84.82-14.53L84.82-14.53Q84.82-17.56 85-19.78Q85.18-21.99 85.48-23.54Q85.78-25.10 86.18-26.06Q86.58-27.03 87.03-27.57Q87.48-28.11 87.95-28.30Q88.42-28.50 88.87-28.50L88.87-28.50Q89.59-28.50 90.15-28.07Q90.70-27.64 91.08-26.87Q91.46-26.09 91.66-25Q91.86-23.91 91.86-22.60L91.86-22.60Q91.86-20.51 91.41-18.28Q90.96-16.05 90.24-13.84Q89.53-11.62 88.65-9.48Q87.77-7.34 86.91-5.43L86.91-5.43Q87.03-4.47 87.27-3.60Q87.50-2.73 87.87-2.06Q88.24-1.39 88.75-0.99Q89.26-0.59 89.92-0.59L89.92-0.59Q90.59-0.59 91.17-0.97Q91.76-1.35 92.19-1.96Q92.62-2.58 92.86-3.36Q93.11-4.14 93.11-4.96L93.11-4.96Q93.11-5.51 93.00-6.06Q92.89-6.62 92.67-7.06Q92.44-7.50 92.11-7.77Q91.78-8.05 91.31-8.05L91.31-8.05Q90.96-8.05 90.76-7.90Q90.57-7.75 90.47-7.57Q90.37-7.38 90.35-7.21Q90.33-7.03 90.33-6.97L90.33-6.97Q90.33-6.70 90.45-6.43Q90.57-6.15 90.90-5.94L90.90-5.94Q91.23-5.70 91.23-5.29L91.23-5.29Q91.23-4.96 91.01-4.77Q90.78-4.57 90.51-4.57L90.51-4.57Q90.12-4.57 89.81-4.80Q89.51-5.04 89.30-5.40Q89.08-5.76 88.96-6.17Q88.85-6.58 88.85-6.93L88.85-6.93Q88.85-7.50 89.04-7.98Q89.24-8.46 89.58-8.80Q89.92-9.14 90.36-9.33Q90.80-9.51 91.29-9.51L91.29-9.51Q92.13-9.51 92.74-9.12Q93.36-8.73 93.77-8.09Q94.18-7.44 94.38-6.62Q94.57-5.80 94.57-4.96L94.57-4.96Q94.57-4.47 94.51-4.00L94.51-4.00Q94.59-3.85 94.77-3.59Q94.94-3.34 95.23-3.11Q95.53-2.87 95.94-2.70Q96.35-2.52 96.89-2.52L96.89-2.52Q97.36-2.52 97.86-2.88Q98.36-3.24 98.82-3.78Q99.28-4.32 99.67-4.93Q100.06-5.55 100.31-6.07L100.31-6.07Q100.41-6.27 100.59-6.38Q100.76-6.48 100.98-6.48L100.98-6.48Q101.31-6.48 101.51-6.25Q101.72-6.02 101.72-5.72L101.72-5.72Q101.72-5.61 101.64-5.41ZM86.54-7.93L86.54-7.93Q87.21-9.57 87.89-11.38Q88.57-13.18 89.12-15.06Q89.67-16.93 90.02-18.85Q90.37-20.76 90.37-22.62L90.37-22.62Q90.37-23.32 90.30-24.09Q90.23-24.86 90.06-25.51Q89.88-26.15 89.58-26.58Q89.28-27.01 88.81-27.01L88.81-27.01Q88.65-27.01 88.41-26.81Q88.16-26.60 87.89-26.08Q87.62-25.57 87.34-24.65Q87.07-23.73 86.85-22.31Q86.62-20.90 86.47-18.91Q86.33-16.91 86.33-14.22L86.33-14.22Q86.33-13.32 86.35-12.39Q86.37-11.46 86.40-10.63Q86.43-9.79 86.46-9.08Q86.50-8.38 86.54-7.93Z M103.50-15.33L103.50-15.33Q103.50-14.59 102.98-14.07Q102.46-13.55 101.72-13.55L101.72-13.55Q100.98-13.55 100.46-14.07Q99.94-14.59 99.94-15.33L99.94-15.33Q99.94-15.70 100.08-16.03Q100.21-16.35 100.46-16.59Q100.70-16.84 101.03-16.97Q101.35-17.11 101.72-17.11L101.72-17.11Q102.09-17.11 102.41-16.97Q102.73-16.84 102.98-16.59Q103.22-16.35 103.36-16.03Q103.50-15.70 103.50-15.33ZM100.33-3.89L100.33-3.89Q100.33-6.70 100.68-9.49L100.68-9.49Q100.72-9.77 100.93-9.97Q101.13-10.18 101.46-10.18L101.46-10.18Q101.76-10.18 101.95-9.95Q102.15-9.73 102.15-9.43L102.15-9.43Q102.15-9.32 102.10-8.73Q102.05-8.14 101.98-7.33Q101.91-6.52 101.87-5.62Q101.82-4.71 101.82-3.95L101.82-3.95Q101.82-2.91 102.02-2.28Q102.23-1.64 102.55-1.29Q102.87-0.94 103.23-0.82Q103.59-0.70 103.93-0.70L103.93-0.70Q104.47-0.70 105.06-1.09Q105.64-1.48 106.26-2.19Q106.88-2.89 107.50-3.88Q108.13-4.86 108.73-6.07L108.73-6.07Q108.83-6.27 109.00-6.38Q109.18-6.48 109.39-6.48L109.39-6.48Q109.71-6.48 109.91-6.25Q110.12-6.02 110.12-5.74L110.12-5.74Q110.12-5.55 110.04-5.41L110.04-5.41Q109.80-4.96 109.45-4.32Q109.10-3.67 108.65-2.99Q108.20-2.30 107.67-1.63Q107.13-0.96 106.52-0.42Q105.92 0.12 105.25 0.45Q104.59 0.78 103.91 0.78L103.91 0.78Q103.03 0.78 102.36 0.41Q101.70 0.04 101.24-0.59Q100.78-1.21 100.56-2.06Q100.33-2.91 100.33-3.89ZM102.40-15.33L102.40-15.33Q102.40-15.61 102.20-15.81Q101.99-16.02 101.72-16.02L101.72-16.02Q101.45-16.02 101.25-15.81Q101.05-15.61 101.05-15.33L101.05-15.33Q101.05-15.06 101.25-14.86Q101.45-14.67 101.72-14.67L101.72-14.67Q101.99-14.67 102.20-14.86Q102.40-15.06 102.40-15.33Z M123.81-5.45L123.81-5.45Q123.73-5.29 123.49-4.79Q123.24-4.30 122.86-3.65Q122.48-3.01 121.97-2.30Q121.46-1.60 120.84-1.02Q120.21-0.43 119.49-0.05Q118.77 0.33 117.97 0.33L117.97 0.33Q116.84 0.33 116.06-0.39Q115.29-1.11 114.94-2.21L114.94-2.21Q114.28-1.09 113.36-0.44Q112.44 0.21 111.52 0.21L111.52 0.21Q110.80 0.21 110.21-0.05Q109.63-0.31 109.22-0.79Q108.81-1.27 108.58-1.91Q108.36-2.56 108.36-3.32L108.36-3.32Q108.36-4.84 108.88-6.01Q109.39-7.17 110.20-7.95Q111.00-8.73 111.96-9.12Q112.93-9.51 113.83-9.51L113.83-9.51Q114.43-9.51 114.94-9.35Q115.45-9.18 115.81-8.98Q116.17-8.79 116.37-8.62Q116.56-8.46 116.58-8.44L116.58-8.44Q116.80-8.18 116.80-7.91L116.80-7.91Q116.80-7.62 116.58-7.39Q116.37-7.17 116.07-7.17L116.07-7.17Q115.76-7.17 115.55-7.38L115.55-7.38Q115.51-7.42 115.37-7.53Q115.23-7.64 115-7.75Q114.77-7.87 114.44-7.96Q114.12-8.05 113.71-8.05L113.71-8.05Q113.11-8.05 112.42-7.77Q111.74-7.50 111.17-6.92Q110.61-6.35 110.22-5.48Q109.84-4.61 109.84-3.42L109.84-3.42Q109.84-3.05 109.92-2.67Q110-2.29 110.20-1.97Q110.39-1.66 110.72-1.46Q111.05-1.27 111.54-1.27L111.54-1.27Q111.89-1.27 112.35-1.50Q112.81-1.74 113.23-2.23Q113.65-2.71 113.99-3.46Q114.34-4.20 114.47-5.21L114.47-5.21Q114.51-5.49 114.73-5.67Q114.94-5.86 115.23-5.86L115.23-5.86Q115.51-5.86 115.71-5.64Q115.92-5.43 115.94-5.16L115.94-5.16Q115.96-4.79 116.02-4.11Q116.07-3.44 116.28-2.77Q116.48-2.11 116.89-1.62Q117.30-1.13 118.03-1.13L118.03-1.13Q118.50-1.13 118.96-1.39Q119.41-1.64 119.85-2.06Q120.29-2.48 120.69-3.02Q121.09-3.55 121.43-4.10Q121.76-4.65 122.01-5.16Q122.27-5.66 122.44-6.04L122.44-6.04Q122.54-6.25 122.72-6.37Q122.91-6.48 123.13-6.48L123.13-6.48Q123.46-6.48 123.66-6.24Q123.87-6.00 123.87-5.72L123.87-5.72Q123.87-5.59 123.81-5.45Z M124.51-8.03L124.51-8.03Q124.43-7.50 124.32-7.04Q124.20-6.58 124.09-6.24Q123.98-5.90 123.91-5.68Q123.83-5.47 123.81-5.45L123.81-5.45Q123.61-5 123.13-5L123.13-5Q122.85-5 122.62-5.21Q122.38-5.41 122.38-5.72L122.38-5.72Q122.38-5.84 122.42-5.90Q122.46-5.96 122.54-6.13Q122.62-6.31 122.73-6.72Q122.85-7.13 123.03-7.99L123.03-7.99Q122.70-7.99 122.34-8.01Q121.99-8.03 121.69-8.14Q121.39-8.26 121.19-8.52Q121.00-8.77 121.00-9.22L121.00-9.22Q121.00-9.55 121.18-10.12Q121.37-10.68 121.68-11.23Q121.99-11.78 122.38-12.18Q122.77-12.58 123.16-12.58L123.16-12.58Q123.61-12.58 123.90-12.25Q124.18-11.91 124.34-11.44Q124.49-10.96 124.56-10.43Q124.63-9.90 124.63-9.51L124.63-9.51Q124.96-9.51 125.28-9.52Q125.61-9.53 125.90-9.53L125.90-9.53Q127.01-9.53 127.60-9.04Q128.18-8.55 128.18-7.44L128.18-7.44Q128.18-6.99 128.13-6.50Q128.07-6.02 127.99-5.50Q127.91-4.98 127.85-4.47Q127.79-3.96 127.79-3.48L127.79-3.48Q127.79-2.77 127.99-2.31Q128.18-1.86 128.48-1.58Q128.77-1.31 129.10-1.20Q129.43-1.09 129.71-1.09L129.71-1.09Q130.55-1.09 131.29-1.64Q132.03-2.19 132.66-2.96Q133.28-3.73 133.78-4.59Q134.28-5.45 134.61-6.09L134.61-6.09Q134.71-6.27 134.88-6.37Q135.06-6.46 135.25-6.46L135.25-6.46Q135.61-6.46 135.80-6.24Q136.00-6.02 136.00-5.74L136.00-5.74Q136.00-5.55 135.92-5.39L135.92-5.39Q135.47-4.59 134.87-3.58Q134.28-2.58 133.52-1.70Q132.75-0.82 131.81-0.21Q130.86 0.39 129.73 0.39L129.73 0.39Q129.02 0.39 128.40 0.13Q127.77-0.14 127.31-0.63Q126.86-1.13 126.58-1.87Q126.31-2.60 126.31-3.52L126.31-3.52Q126.31-4.49 126.50-5.46Q126.70-6.43 126.70-7.30L126.70-7.30Q126.70-7.68 126.53-7.86Q126.37-8.05 125.80-8.05L125.80-8.05Q125.53-8.05 125.21-8.05Q124.88-8.05 124.51-8.03ZM122.34-9.47L123.20-9.47Q123.20-9.61 123.19-9.83Q123.18-10.06 123.15-10.27Q123.13-10.49 123.08-10.64Q123.03-10.80 122.97-10.80L122.97-10.80Q122.91-10.80 122.82-10.65Q122.73-10.51 122.64-10.30Q122.54-10.10 122.46-9.86Q122.38-9.63 122.34-9.47L122.34-9.47Z"/></g>
</svg>
</g></g><g filter="url(#tUk6sjh6M)"><g opacity="1" transform="rotate(0 100.7134 356.6273)">
<svg width="391.4702" height="90" x="100.7134" y="356.6273" version="1.1" preserveAspectRatio="none" viewBox="0.5859 -30.2344 135.4102 31.132800000000003">
  <g transform="matrix(1 0 0 1 0 0)" class="companyName"><path id="id-D6z1nYkh7" d="M51.95-29.38L51.95-29.38Q51.91-29.08 51.70-28.91Q51.48-28.73 51.21-28.73L51.21-28.73Q51.17-28.73 51.07-28.74Q50.98-28.75 50.63-28.75L50.63-28.75Q50.25-28.75 49.68-28.67Q49.10-28.59 48.41-28.35Q47.71-28.11 46.96-27.64Q46.21-27.17 45.49-26.38Q44.77-25.59 44.12-24.42Q43.48-23.26 43.03-21.62L43.03-21.62Q42.79-20.80 42.49-19.27Q42.19-17.73 41.85-15.82Q41.50-13.91 41.16-11.74Q40.82-9.57 40.52-7.48Q40.21-5.39 39.96-3.51Q39.71-1.62 39.57-0.27L39.57-0.27Q39.53-0.02 39.35 0.19Q39.16 0.39 38.89 0.39L38.89 0.39Q38.61 0.39 38.41 0.25Q38.20 0.12 38.13-0.16L38.13-0.16Q37.87-1.09 37.32-2.75Q36.78-4.41 36.06-6.49Q35.35-8.57 34.51-10.92Q33.67-13.26 32.84-15.56Q32.01-17.85 31.24-19.95Q30.47-22.05 29.88-23.65L29.88-23.65Q29.79-22.56 29.58-21.22Q29.38-19.88 29.03-18.35Q28.69-16.82 28.18-15.11Q27.68-13.40 26.97-11.56L26.97-11.56Q25.88-8.75 24.40-6.76Q22.93-4.77 21.31-3.44Q19.69-2.11 18.02-1.34Q16.35-0.57 14.88-0.18Q13.42 0.21 12.25 0.32Q11.07 0.43 10.45 0.43L10.45 0.43Q8.30 0.43 6.49-0.14Q4.69-0.70 3.37-1.75Q2.05-2.79 1.32-4.25Q0.59-5.70 0.59-7.46L0.59-7.46Q0.59-9.04 1.30-10.42Q2.01-11.80 3.21-12.81Q4.41-13.83 5.97-14.41Q7.52-15 9.20-15L9.20-15Q10.59-15 11.69-14.73Q12.79-14.45 13.64-14.03Q14.49-13.61 15.11-13.13Q15.72-12.64 16.12-12.20Q16.52-11.76 16.73-11.45Q16.93-11.13 16.97-11.07L16.97-11.07Q17.05-10.92 17.05-10.72L17.05-10.72Q17.05-10.45 16.85-10.21Q16.64-9.98 16.31-9.98L16.31-9.98Q15.88-9.98 15.66-10.37L15.66-10.37Q15.64-10.43 15.28-10.93Q14.92-11.43 14.17-12.01Q13.42-12.60 12.23-13.08Q11.04-13.55 9.34-13.55L9.34-13.55Q7.95-13.55 6.63-13.09Q5.31-12.62 4.30-11.80Q3.28-10.98 2.67-9.85Q2.05-8.73 2.05-7.42L2.05-7.42Q2.05-6.00 2.71-4.81Q3.38-3.63 4.52-2.79Q5.66-1.95 7.18-1.49Q8.69-1.04 10.41-1.04L10.41-1.04Q11.07-1.04 12.17-1.13Q13.26-1.23 14.62-1.58Q15.98-1.93 17.48-2.65Q18.98-3.36 20.45-4.59Q21.91-5.82 23.25-7.66Q24.59-9.49 25.61-12.11L25.61-12.11Q26.66-14.80 27.26-17.24Q27.85-19.67 28.14-21.62Q28.44-23.57 28.51-24.95Q28.57-26.33 28.57-26.91L28.57-26.91L28.57-27.30Q28.57-27.62 28.78-27.84Q28.98-28.07 29.32-28.07L29.32-28.07Q29.80-28.07 30-27.58L30-27.58Q30.06-27.44 30.34-26.66Q30.63-25.88 31.08-24.64Q31.54-23.40 32.14-21.78Q32.73-20.16 33.40-18.33Q34.06-16.50 34.77-14.55Q35.47-12.60 36.14-10.70Q36.82-8.81 37.42-7.05Q38.03-5.29 38.52-3.85L38.52-3.85Q38.73-5.41 38.98-7.16Q39.24-8.91 39.52-10.69Q39.80-12.48 40.09-14.20Q40.37-15.92 40.65-17.42Q40.94-18.93 41.17-20.12Q41.41-21.31 41.60-22.03L41.60-22.03Q42.03-23.75 42.83-25.24Q43.63-26.74 44.78-27.85Q45.92-28.96 47.39-29.60Q48.87-30.23 50.66-30.23L50.66-30.23Q51.35-30.23 51.65-30.08Q51.95-29.92 51.95-29.47L51.95-29.47L51.95-29.38Z M60.96-5.45L60.96-5.45Q60.88-5.29 60.63-4.79Q60.39-4.30 60.01-3.65Q59.63-3.01 59.12-2.30Q58.61-1.60 57.99-1.02Q57.36-0.43 56.64-0.05Q55.92 0.33 55.12 0.33L55.12 0.33Q53.98 0.33 53.21-0.39Q52.44-1.11 52.09-2.21L52.09-2.21Q51.43-1.09 50.51-0.44Q49.59 0.21 48.67 0.21L48.67 0.21Q47.95 0.21 47.36-0.05Q46.78-0.31 46.37-0.79Q45.96-1.27 45.73-1.91Q45.51-2.56 45.51-3.32L45.51-3.32Q45.51-4.84 46.03-6.01Q46.54-7.17 47.34-7.95Q48.14-8.73 49.11-9.12Q50.08-9.51 50.98-9.51L50.98-9.51Q51.58-9.51 52.09-9.35Q52.60-9.18 52.96-8.98Q53.32-8.79 53.52-8.62Q53.71-8.46 53.73-8.44L53.73-8.44Q53.95-8.18 53.95-7.91L53.95-7.91Q53.95-7.62 53.73-7.39Q53.52-7.17 53.22-7.17L53.22-7.17Q52.91-7.17 52.70-7.38L52.70-7.38Q52.66-7.42 52.52-7.53Q52.38-7.64 52.15-7.75Q51.91-7.87 51.59-7.96Q51.27-8.05 50.86-8.05L50.86-8.05Q50.25-8.05 49.57-7.77Q48.89-7.50 48.32-6.92Q47.75-6.35 47.37-5.48Q46.99-4.61 46.99-3.42L46.99-3.42Q46.99-3.05 47.07-2.67Q47.15-2.29 47.34-1.97Q47.54-1.66 47.87-1.46Q48.20-1.27 48.69-1.27L48.69-1.27Q49.04-1.27 49.50-1.50Q49.96-1.74 50.38-2.23Q50.80-2.71 51.14-3.46Q51.48-4.20 51.62-5.21L51.62-5.21Q51.66-5.49 51.88-5.67Q52.09-5.86 52.38-5.86L52.38-5.86Q52.66-5.86 52.86-5.64Q53.07-5.43 53.09-5.16L53.09-5.16Q53.11-4.79 53.16-4.11Q53.22-3.44 53.43-2.77Q53.63-2.11 54.04-1.62Q54.45-1.13 55.18-1.13L55.18-1.13Q55.64-1.13 56.10-1.39Q56.56-1.64 57.00-2.06Q57.44-2.48 57.84-3.02Q58.24-3.55 58.57-4.10Q58.91-4.65 59.16-5.16Q59.41-5.66 59.59-6.04L59.59-6.04Q59.69-6.25 59.87-6.37Q60.06-6.48 60.27-6.48L60.27-6.48Q60.61-6.48 60.81-6.24Q61.02-6.00 61.02-5.72L61.02-5.72Q61.02-5.59 60.96-5.45Z M64.12-1.74L64.12-1.74Q64.41-2.32 64.87-3.19Q65.33-4.06 65.83-4.94Q66.33-5.82 66.81-6.60Q67.29-7.38 67.62-7.79L67.62-7.79Q68.18-8.48 68.79-8.77Q69.39-9.06 69.90-9.06L69.90-9.06Q70.41-9.06 70.77-8.85Q71.13-8.63 71.37-8.27Q71.60-7.91 71.72-7.43Q71.84-6.95 71.84-6.41L71.84-6.41Q71.84-6.09 71.81-5.59Q71.78-5.08 71.75-4.49Q71.72-3.91 71.69-3.28Q71.66-2.66 71.64-2.11L71.64-2.11Q71.93-2.70 72.30-3.41Q72.68-4.12 73.06-4.82Q73.44-5.53 73.79-6.14Q74.14-6.76 74.43-7.15L74.43-7.15Q75.27-8.30 76.01-8.69Q76.74-9.08 77.30-9.08L77.30-9.08Q77.97-9.08 78.40-8.84Q78.83-8.59 79.07-8.21Q79.32-7.83 79.41-7.36Q79.51-6.89 79.51-6.46L79.51-6.46Q79.51-5.80 79.41-5.08Q79.32-4.36 79.32-3.36L79.32-3.36Q79.32-2.95 79.36-2.54Q79.39-2.13 79.52-1.82Q79.65-1.50 79.92-1.31Q80.20-1.11 80.66-1.11L80.66-1.11Q81.17-1.11 81.66-1.38Q82.15-1.64 82.60-2.07Q83.05-2.50 83.45-3.05Q83.85-3.59 84.18-4.14Q84.51-4.69 84.77-5.19Q85.02-5.68 85.18-6.04L85.18-6.04Q85.27-6.25 85.45-6.37Q85.63-6.48 85.84-6.48L85.84-6.48Q86.17-6.48 86.38-6.24Q86.58-6.00 86.58-5.72L86.58-5.72Q86.58-5.59 86.52-5.45L86.52-5.45Q86.45-5.29 86.21-4.79Q85.98-4.30 85.59-3.66Q85.20-3.03 84.68-2.32Q84.16-1.62 83.54-1.03Q82.91-0.43 82.19-0.05Q81.46 0.33 80.66 0.33L80.66 0.33Q79.80 0.33 79.27 0.03Q78.73-0.27 78.41-0.78Q78.09-1.29 77.97-1.95Q77.85-2.62 77.85-3.34L77.85-3.34Q77.85-4.30 77.95-5.11Q78.05-5.92 78.05-6.37L78.05-6.37Q78.05-6.86 77.96-7.11Q77.87-7.36 77.74-7.47Q77.62-7.58 77.50-7.59Q77.38-7.60 77.32-7.60L77.32-7.60Q76.86-7.60 76.34-7.08Q75.82-6.56 75.27-5.70Q74.73-4.84 74.15-3.75Q73.57-2.66 72.99-1.52L72.99-1.52Q72.66-0.90 72.43-0.49Q72.21-0.08 72.00 0.16Q71.80 0.39 71.60 0.49Q71.41 0.59 71.17 0.59L71.17 0.59Q70.66 0.59 70.40 0.23Q70.14-0.12 70.14-0.68L70.14-0.68Q70.14-0.98 70.16-1.46Q70.18-1.95 70.20-2.54Q70.21-3.13 70.25-3.75Q70.29-4.38 70.31-4.95Q70.33-5.53 70.35-5.98Q70.37-6.43 70.37-6.66L70.37-6.66Q70.37-7.17 70.20-7.39Q70.02-7.62 69.79-7.62L69.79-7.62Q69.57-7.62 69.31-7.46Q69.04-7.30 68.69-6.86L68.69-6.86Q68.42-6.50 68.00-5.83Q67.58-5.16 67.11-4.34Q66.64-3.52 66.18-2.66Q65.72-1.80 65.39-1.11L65.39-1.11Q64.98-0.29 64.57 0.01Q64.16 0.31 63.77 0.31L63.77 0.31Q63.20 0.31 62.93-0.03Q62.66-0.37 62.66-0.94L62.66-0.94Q62.66-1.00 62.69-1.64Q62.71-2.29 62.75-3.21Q62.79-4.14 62.84-5.20Q62.89-6.25 62.93-7.17L62.93-7.17Q62.95-7.66 62.89-8.07Q62.83-8.48 62.73-8.55L62.73-8.55Q62.58-8.52 62.12-7.83Q61.66-7.15 60.96-5.45L60.96-5.45Q60.86-5.23 60.66-5.12Q60.47-5 60.25-5L60.25-5Q59.92-5 59.73-5.22Q59.53-5.45 59.53-5.74L59.53-5.74Q59.53-5.88 59.59-6.04L59.59-6.04Q60.47-8.13 61.27-9.11Q62.07-10.10 62.83-10.10L62.83-10.10Q63.28-10.10 63.58-9.89Q63.89-9.69 64.06-9.37Q64.24-9.04 64.32-8.63Q64.39-8.22 64.39-7.83L64.39-7.83Q64.39-6.09 64.31-4.65Q64.22-3.20 64.12-1.74Z M101.64-5.41L101.64-5.41Q101.58-5.29 101.39-4.93Q101.19-4.57 100.88-4.09Q100.57-3.61 100.14-3.08Q99.71-2.54 99.20-2.09Q98.69-1.64 98.11-1.35Q97.52-1.05 96.89-1.05L96.89-1.05Q95.88-1.05 95.18-1.42Q94.47-1.78 94.02-2.23L94.02-2.23Q93.71-1.54 93.26-0.98Q92.81-0.41 92.27 0.01Q91.72 0.43 91.10 0.66Q90.49 0.90 89.84 0.90L89.84 0.90Q88.65 0.90 87.81 0.20Q86.97-0.51 86.42-1.69Q85.86-2.87 85.55-4.43Q85.23-6.00 85.07-7.71Q84.90-9.43 84.86-11.19Q84.82-12.95 84.82-14.53L84.82-14.53Q84.82-17.56 85-19.78Q85.18-21.99 85.48-23.54Q85.78-25.10 86.18-26.06Q86.58-27.03 87.03-27.57Q87.48-28.11 87.95-28.30Q88.42-28.50 88.87-28.50L88.87-28.50Q89.59-28.50 90.15-28.07Q90.70-27.64 91.08-26.87Q91.46-26.09 91.66-25Q91.86-23.91 91.86-22.60L91.86-22.60Q91.86-20.51 91.41-18.28Q90.96-16.05 90.24-13.84Q89.53-11.62 88.65-9.48Q87.77-7.34 86.91-5.43L86.91-5.43Q87.03-4.47 87.27-3.60Q87.50-2.73 87.87-2.06Q88.24-1.39 88.75-0.99Q89.26-0.59 89.92-0.59L89.92-0.59Q90.59-0.59 91.17-0.97Q91.76-1.35 92.19-1.96Q92.62-2.58 92.86-3.36Q93.11-4.14 93.11-4.96L93.11-4.96Q93.11-5.51 93.00-6.06Q92.89-6.62 92.67-7.06Q92.44-7.50 92.11-7.77Q91.78-8.05 91.31-8.05L91.31-8.05Q90.96-8.05 90.76-7.90Q90.57-7.75 90.47-7.57Q90.37-7.38 90.35-7.21Q90.33-7.03 90.33-6.97L90.33-6.97Q90.33-6.70 90.45-6.43Q90.57-6.15 90.90-5.94L90.90-5.94Q91.23-5.70 91.23-5.29L91.23-5.29Q91.23-4.96 91.01-4.77Q90.78-4.57 90.51-4.57L90.51-4.57Q90.12-4.57 89.81-4.80Q89.51-5.04 89.30-5.40Q89.08-5.76 88.96-6.17Q88.85-6.58 88.85-6.93L88.85-6.93Q88.85-7.50 89.04-7.98Q89.24-8.46 89.58-8.80Q89.92-9.14 90.36-9.33Q90.80-9.51 91.29-9.51L91.29-9.51Q92.13-9.51 92.74-9.12Q93.36-8.73 93.77-8.09Q94.18-7.44 94.38-6.62Q94.57-5.80 94.57-4.96L94.57-4.96Q94.57-4.47 94.51-4.00L94.51-4.00Q94.59-3.85 94.77-3.59Q94.94-3.34 95.23-3.11Q95.53-2.87 95.94-2.70Q96.35-2.52 96.89-2.52L96.89-2.52Q97.36-2.52 97.86-2.88Q98.36-3.24 98.82-3.78Q99.28-4.32 99.67-4.93Q100.06-5.55 100.31-6.07L100.31-6.07Q100.41-6.27 100.59-6.38Q100.76-6.48 100.98-6.48L100.98-6.48Q101.31-6.48 101.51-6.25Q101.72-6.02 101.72-5.72L101.72-5.72Q101.72-5.61 101.64-5.41ZM86.54-7.93L86.54-7.93Q87.21-9.57 87.89-11.38Q88.57-13.18 89.12-15.06Q89.67-16.93 90.02-18.85Q90.37-20.76 90.37-22.62L90.37-22.62Q90.37-23.32 90.30-24.09Q90.23-24.86 90.06-25.51Q89.88-26.15 89.58-26.58Q89.28-27.01 88.81-27.01L88.81-27.01Q88.65-27.01 88.41-26.81Q88.16-26.60 87.89-26.08Q87.62-25.57 87.34-24.65Q87.07-23.73 86.85-22.31Q86.62-20.90 86.47-18.91Q86.33-16.91 86.33-14.22L86.33-14.22Q86.33-13.32 86.35-12.39Q86.37-11.46 86.40-10.63Q86.43-9.79 86.46-9.08Q86.50-8.38 86.54-7.93Z M103.50-15.33L103.50-15.33Q103.50-14.59 102.98-14.07Q102.46-13.55 101.72-13.55L101.72-13.55Q100.98-13.55 100.46-14.07Q99.94-14.59 99.94-15.33L99.94-15.33Q99.94-15.70 100.08-16.03Q100.21-16.35 100.46-16.59Q100.70-16.84 101.03-16.97Q101.35-17.11 101.72-17.11L101.72-17.11Q102.09-17.11 102.41-16.97Q102.73-16.84 102.98-16.59Q103.22-16.35 103.36-16.03Q103.50-15.70 103.50-15.33ZM100.33-3.89L100.33-3.89Q100.33-6.70 100.68-9.49L100.68-9.49Q100.72-9.77 100.93-9.97Q101.13-10.18 101.46-10.18L101.46-10.18Q101.76-10.18 101.95-9.95Q102.15-9.73 102.15-9.43L102.15-9.43Q102.15-9.32 102.10-8.73Q102.05-8.14 101.98-7.33Q101.91-6.52 101.87-5.62Q101.82-4.71 101.82-3.95L101.82-3.95Q101.82-2.91 102.02-2.28Q102.23-1.64 102.55-1.29Q102.87-0.94 103.23-0.82Q103.59-0.70 103.93-0.70L103.93-0.70Q104.47-0.70 105.06-1.09Q105.64-1.48 106.26-2.19Q106.88-2.89 107.50-3.88Q108.13-4.86 108.73-6.07L108.73-6.07Q108.83-6.27 109.00-6.38Q109.18-6.48 109.39-6.48L109.39-6.48Q109.71-6.48 109.91-6.25Q110.12-6.02 110.12-5.74L110.12-5.74Q110.12-5.55 110.04-5.41L110.04-5.41Q109.80-4.96 109.45-4.32Q109.10-3.67 108.65-2.99Q108.20-2.30 107.67-1.63Q107.13-0.96 106.52-0.42Q105.92 0.12 105.25 0.45Q104.59 0.78 103.91 0.78L103.91 0.78Q103.03 0.78 102.36 0.41Q101.70 0.04 101.24-0.59Q100.78-1.21 100.56-2.06Q100.33-2.91 100.33-3.89ZM102.40-15.33L102.40-15.33Q102.40-15.61 102.20-15.81Q101.99-16.02 101.72-16.02L101.72-16.02Q101.45-16.02 101.25-15.81Q101.05-15.61 101.05-15.33L101.05-15.33Q101.05-15.06 101.25-14.86Q101.45-14.67 101.72-14.67L101.72-14.67Q101.99-14.67 102.20-14.86Q102.40-15.06 102.40-15.33Z M123.81-5.45L123.81-5.45Q123.73-5.29 123.49-4.79Q123.24-4.30 122.86-3.65Q122.48-3.01 121.97-2.30Q121.46-1.60 120.84-1.02Q120.21-0.43 119.49-0.05Q118.77 0.33 117.97 0.33L117.97 0.33Q116.84 0.33 116.06-0.39Q115.29-1.11 114.94-2.21L114.94-2.21Q114.28-1.09 113.36-0.44Q112.44 0.21 111.52 0.21L111.52 0.21Q110.80 0.21 110.21-0.05Q109.63-0.31 109.22-0.79Q108.81-1.27 108.58-1.91Q108.36-2.56 108.36-3.32L108.36-3.32Q108.36-4.84 108.88-6.01Q109.39-7.17 110.20-7.95Q111.00-8.73 111.96-9.12Q112.93-9.51 113.83-9.51L113.83-9.51Q114.43-9.51 114.94-9.35Q115.45-9.18 115.81-8.98Q116.17-8.79 116.37-8.62Q116.56-8.46 116.58-8.44L116.58-8.44Q116.80-8.18 116.80-7.91L116.80-7.91Q116.80-7.62 116.58-7.39Q116.37-7.17 116.07-7.17L116.07-7.17Q115.76-7.17 115.55-7.38L115.55-7.38Q115.51-7.42 115.37-7.53Q115.23-7.64 115-7.75Q114.77-7.87 114.44-7.96Q114.12-8.05 113.71-8.05L113.71-8.05Q113.11-8.05 112.42-7.77Q111.74-7.50 111.17-6.92Q110.61-6.35 110.22-5.48Q109.84-4.61 109.84-3.42L109.84-3.42Q109.84-3.05 109.92-2.67Q110-2.29 110.20-1.97Q110.39-1.66 110.72-1.46Q111.05-1.27 111.54-1.27L111.54-1.27Q111.89-1.27 112.35-1.50Q112.81-1.74 113.23-2.23Q113.65-2.71 113.99-3.46Q114.34-4.20 114.47-5.21L114.47-5.21Q114.51-5.49 114.73-5.67Q114.94-5.86 115.23-5.86L115.23-5.86Q115.51-5.86 115.71-5.64Q115.92-5.43 115.94-5.16L115.94-5.16Q115.96-4.79 116.02-4.11Q116.07-3.44 116.28-2.77Q116.48-2.11 116.89-1.62Q117.30-1.13 118.03-1.13L118.03-1.13Q118.50-1.13 118.96-1.39Q119.41-1.64 119.85-2.06Q120.29-2.48 120.69-3.02Q121.09-3.55 121.43-4.10Q121.76-4.65 122.01-5.16Q122.27-5.66 122.44-6.04L122.44-6.04Q122.54-6.25 122.72-6.37Q122.91-6.48 123.13-6.48L123.13-6.48Q123.46-6.48 123.66-6.24Q123.87-6.00 123.87-5.72L123.87-5.72Q123.87-5.59 123.81-5.45Z M124.51-8.03L124.51-8.03Q124.43-7.50 124.32-7.04Q124.20-6.58 124.09-6.24Q123.98-5.90 123.91-5.68Q123.83-5.47 123.81-5.45L123.81-5.45Q123.61-5 123.13-5L123.13-5Q122.85-5 122.62-5.21Q122.38-5.41 122.38-5.72L122.38-5.72Q122.38-5.84 122.42-5.90Q122.46-5.96 122.54-6.13Q122.62-6.31 122.73-6.72Q122.85-7.13 123.03-7.99L123.03-7.99Q122.70-7.99 122.34-8.01Q121.99-8.03 121.69-8.14Q121.39-8.26 121.19-8.52Q121.00-8.77 121.00-9.22L121.00-9.22Q121.00-9.55 121.18-10.12Q121.37-10.68 121.68-11.23Q121.99-11.78 122.38-12.18Q122.77-12.58 123.16-12.58L123.16-12.58Q123.61-12.58 123.90-12.25Q124.18-11.91 124.34-11.44Q124.49-10.96 124.56-10.43Q124.63-9.90 124.63-9.51L124.63-9.51Q124.96-9.51 125.28-9.52Q125.61-9.53 125.90-9.53L125.90-9.53Q127.01-9.53 127.60-9.04Q128.18-8.55 128.18-7.44L128.18-7.44Q128.18-6.99 128.13-6.50Q128.07-6.02 127.99-5.50Q127.91-4.98 127.85-4.47Q127.79-3.96 127.79-3.48L127.79-3.48Q127.79-2.77 127.99-2.31Q128.18-1.86 128.48-1.58Q128.77-1.31 129.10-1.20Q129.43-1.09 129.71-1.09L129.71-1.09Q130.55-1.09 131.29-1.64Q132.03-2.19 132.66-2.96Q133.28-3.73 133.78-4.59Q134.28-5.45 134.61-6.09L134.61-6.09Q134.71-6.27 134.88-6.37Q135.06-6.46 135.25-6.46L135.25-6.46Q135.61-6.46 135.80-6.24Q136.00-6.02 136.00-5.74L136.00-5.74Q136.00-5.55 135.92-5.39L135.92-5.39Q135.47-4.59 134.87-3.58Q134.28-2.58 133.52-1.70Q132.75-0.82 131.81-0.21Q130.86 0.39 129.73 0.39L129.73 0.39Q129.02 0.39 128.40 0.13Q127.77-0.14 127.31-0.63Q126.86-1.13 126.58-1.87Q126.31-2.60 126.31-3.52L126.31-3.52Q126.31-4.49 126.50-5.46Q126.70-6.43 126.70-7.30L126.70-7.30Q126.70-7.68 126.53-7.86Q126.37-8.05 125.80-8.05L125.80-8.05Q125.53-8.05 125.21-8.05Q124.88-8.05 124.51-8.03ZM122.34-9.47L123.20-9.47Q123.20-9.61 123.19-9.83Q123.18-10.06 123.15-10.27Q123.13-10.49 123.08-10.64Q123.03-10.80 122.97-10.80L122.97-10.80Q122.91-10.80 122.82-10.65Q122.73-10.51 122.64-10.30Q122.54-10.10 122.46-9.86Q122.38-9.63 122.34-9.47L122.34-9.47Z"/></g>
</svg>
</g></g><g filter="url(#a2O-D20rgJ)"><g opacity="1" transform="rotate(0 247.2342 246.6273)">
<svg width="98.4286" height="90" x="247.2342" y="246.6273" version="1.1" preserveAspectRatio="none" viewBox="5 8.852999687194824 90 82.29301452636719">
  <g transform="matrix(1 0 0 1 0 0)" class="icon3"><path d="M68.835,12.853C81.057,12.853,91,22.796,91,35.019c0,26.395-32.808,46.858-41.003,51.557C41.792,81.881,9,61.46,9,35.019  c0-12.222,9.944-22.166,22.166-22.166c6.047,0,11.699,2.396,15.916,6.747l2.828,2.918l0.074-0.074l0.091,0.092l2.844-2.934  C57.135,15.25,62.787,12.853,68.835,12.853 M68.835,8.853c-7.375,0-14.033,3.056-18.79,7.965l-0.046-0.046l-0.045,0.045  c-4.757-4.908-11.414-7.963-18.788-7.963C16.715,8.853,5,20.567,5,35.019C5,67.87,49.999,91.146,49.999,91.146S95,67.87,95,35.019  C95,20.567,83.285,8.853,68.835,8.853L68.835,8.853z"></path><path fill-rule="evenodd" clip-rule="evenodd" stroke-width="4" stroke-miterlimit="10" d="  M8.204,51.309"></path></g>
</svg>
</g></g><g filter="url(#i0NrGVRvc)"><g opacity="1" transform="rotate(0 247.2342 246.6273)">
<svg width="98.4286" height="90" x="247.2342" y="246.6273" version="1.1" preserveAspectRatio="none" viewBox="5 8.852999687194824 90 82.29301452636719">
  <g transform="matrix(1 0 0 1 0 0)" class="companyName"><path d="M68.835,12.853C81.057,12.853,91,22.796,91,35.019c0,26.395-32.808,46.858-41.003,51.557C41.792,81.881,9,61.46,9,35.019  c0-12.222,9.944-22.166,22.166-22.166c6.047,0,11.699,2.396,15.916,6.747l2.828,2.918l0.074-0.074l0.091,0.092l2.844-2.934  C57.135,15.25,62.787,12.853,68.835,12.853 M68.835,8.853c-7.375,0-14.033,3.056-18.79,7.965l-0.046-0.046l-0.045,0.045  c-4.757-4.908-11.414-7.963-18.788-7.963C16.715,8.853,5,20.567,5,35.019C5,67.87,49.999,91.146,49.999,91.146S95,67.87,95,35.019  C95,20.567,83.285,8.853,68.835,8.853L68.835,8.853z"></path><path fill-rule="evenodd" clip-rule="evenodd" stroke-width="4" stroke-miterlimit="10" d="  M8.204,51.309"></path></g>
</svg>
</g></g></svg></svg>